<svg width="85" height="85" viewBox="0 0 85 85" fill="none" xmlns="http://www.w3.org/2000/svg">
<path d="M42.5 0C19.0222 0 0 19.0222 0 42.5C0 65.9778 19.0222 85 42.5 85C65.9778 85 85 65.9778 85 42.5C85 19.0222 65.9778 0 42.5 0ZM23.3065 39.7581C23.3065 38.1643 24.0091 36.7591 25.1058 35.748L19.7933 34.1542C18.3367 33.7258 17.5141 32.1835 17.9597 30.744C18.3881 29.2873 19.9133 28.4819 21.37 28.9103L35.0796 33.0232C36.5363 33.4516 37.3589 34.994 36.9133 36.4335C36.5534 37.6159 35.4738 38.3871 34.2913 38.3871C34.2056 38.3871 34.1028 38.3528 34 38.3528C34.12 38.8155 34.2913 39.2611 34.2913 39.7581C34.2913 42.7913 31.8407 45.2419 28.8075 45.2419C25.7742 45.2419 23.3065 42.7913 23.3065 39.7581ZM52.0968 66.1835C47.3327 60.4597 37.6673 60.4597 32.8861 66.1835C30.5726 68.9768 26.3397 65.4637 28.6704 62.6704C32.0978 58.5575 37.1361 56.1925 42.4829 56.1925C47.8296 56.1925 52.8679 58.5575 56.2954 62.6704C58.6603 65.498 54.3931 68.9425 52.0968 66.1835ZM65.2238 34.1542L59.9113 35.748C60.9909 36.7419 61.7107 38.1643 61.7107 39.7581C61.7107 42.7913 59.2601 45.2419 56.2268 45.2419C53.1935 45.2419 50.7429 42.7913 50.7429 39.7581C50.7429 39.2611 50.8972 38.7984 51.0343 38.3528C50.9314 38.37 50.8458 38.3871 50.7429 38.3871C49.5605 38.3871 48.4808 37.6159 48.121 36.4335C47.6925 34.9768 48.5151 33.4516 49.9546 33.0232L63.6643 28.9103C65.1038 28.4819 66.6462 29.3044 67.0746 30.744C67.503 32.2006 66.6804 33.7258 65.2238 34.1542Z" fill="#FF0000"/>
</svg>
