<svg width="25" height="25" viewBox="0 0 25 25" fill="none" xmlns="http://www.w3.org/2000/svg">
<path d="M13.8542 17.9948C13.6458 17.7865 13.5458 17.5347 13.5542 17.2396C13.5625 16.9444 13.6712 16.6927 13.8802 16.4844L16.8229 13.5417H5.20833C4.9132 13.5417 4.66563 13.4417 4.46563 13.2417C4.26563 13.0417 4.16597 12.7944 4.16667 12.5C4.16667 12.2049 4.26667 11.9573 4.46667 11.7573C4.66667 11.5573 4.91389 11.4576 5.20833 11.4583H16.8229L13.8542 8.48958C13.6458 8.28125 13.5417 8.03368 13.5417 7.74687C13.5417 7.46007 13.6458 7.21285 13.8542 7.00521C14.0625 6.79687 14.3101 6.69271 14.5969 6.69271C14.8837 6.69271 15.1309 6.79687 15.3385 7.00521L20.1042 11.7708C20.2083 11.875 20.2823 11.9878 20.326 12.1094C20.3698 12.2309 20.3913 12.3611 20.3906 12.5C20.3906 12.6389 20.3688 12.7691 20.325 12.8906C20.2813 13.0122 20.2076 13.125 20.1042 13.2292L15.3125 18.0208C15.1215 18.2118 14.883 18.3073 14.5969 18.3073C14.3108 18.3073 14.0632 18.2031 13.8542 17.9948Z" fill="white"/>
</svg>
