<svg width="18" height="18" viewBox="0 0 18 18" fill="none" xmlns="http://www.w3.org/2000/svg">
<path d="M12 10.5C11.375 10.5 10.8438 10.2813 10.4063 9.84375C9.96875 9.40625 9.75 8.875 9.75 8.25C9.75 7.625 9.96875 7.09375 10.4063 6.65625C10.8438 6.21875 11.375 6 12 6C12.625 6 13.1563 6.21875 13.5938 6.65625C14.0313 7.09375 14.25 7.625 14.25 8.25C14.25 8.875 14.0313 9.40625 13.5938 9.84375C13.1563 10.2813 12.625 10.5 12 10.5ZM8.25 15C8.0375 15 7.85925 14.928 7.71525 14.784C7.57125 14.64 7.4995 14.462 7.5 14.25V13.575C7.5 13.3125 7.5625 13.0625 7.6875 12.825C7.8125 12.5875 7.9875 12.4 8.2125 12.2625C8.775 11.925 9.372 11.672 10.0035 11.5035C10.635 11.335 11.3005 11.2505 12 11.25C12.7 11.25 13.3658 11.3345 13.9973 11.5035C14.6288 11.6725 15.2255 11.9255 15.7875 12.2625C16.0125 12.4 16.1875 12.5875 16.3125 12.825C16.4375 13.0625 16.5 13.3125 16.5 13.575V14.25C16.5 14.4625 16.428 14.6408 16.284 14.7848C16.14 14.9288 15.962 15.0005 15.75 15H8.25ZM7.5 10.5H3C2.7875 10.5 2.60925 10.428 2.46525 10.284C2.32125 10.14 2.2495 9.962 2.25 9.75C2.25 9.5375 2.322 9.35925 2.466 9.21525C2.61 9.07125 2.788 8.9995 3 9H7.5C7.7125 9 7.89075 9.072 8.03475 9.216C8.17875 9.36 8.2505 9.538 8.25 9.75C8.25 9.9625 8.178 10.1408 8.034 10.2848C7.89 10.4288 7.712 10.5005 7.5 10.5ZM10.5 4.5H3C2.7875 4.5 2.60925 4.428 2.46525 4.284C2.32125 4.14 2.2495 3.962 2.25 3.75C2.25 3.5375 2.322 3.35925 2.466 3.21525C2.61 3.07125 2.788 2.9995 3 3H10.5C10.7125 3 10.8908 3.072 11.0348 3.216C11.1788 3.36 11.2505 3.538 11.25 3.75C11.25 3.9625 11.178 4.14075 11.034 4.28475C10.89 4.42875 10.712 4.5005 10.5 4.5ZM8.325 7.5H3C2.7875 7.5 2.60925 7.428 2.46525 7.284C2.32125 7.14 2.2495 6.962 2.25 6.75C2.25 6.5375 2.322 6.35925 2.466 6.21525C2.61 6.07125 2.788 5.9995 3 6H9C8.825 6.2125 8.68425 6.44375 8.57775 6.69375C8.47125 6.94375 8.387 7.2125 8.325 7.5Z" fill="#F8F8F8"/>
</svg>
