<svg width="35" height="35" viewBox="0 0 35 35" fill="none" xmlns="http://www.w3.org/2000/svg">
<path d="M27.0903 8.32707C26.9554 8.19188 26.7951 8.08462 26.6187 8.01144C26.4423 7.93826 26.2532 7.90059 26.0622 7.90059C25.8712 7.90059 25.682 7.93826 25.5056 8.01144C25.3292 8.08462 25.169 8.19188 25.034 8.32707L17.9028 15.4437L10.7715 8.31249C10.6365 8.17747 10.4762 8.07037 10.2998 7.99731C10.1234 7.92424 9.93436 7.88663 9.74342 7.88663C9.55248 7.88663 9.36341 7.92424 9.187 7.99731C9.01059 8.07037 8.85031 8.17747 8.71529 8.31249C8.58028 8.44751 8.47318 8.60779 8.40011 8.7842C8.32704 8.9606 8.28943 9.14968 8.28943 9.34062C8.28943 9.53156 8.32704 9.72063 8.40011 9.89703C8.47318 10.0734 8.58028 10.2337 8.71529 10.3687L15.8465 17.5L8.71529 24.6312C8.58028 24.7663 8.47318 24.9265 8.40011 25.1029C8.32704 25.2794 8.28943 25.4684 8.28943 25.6594C8.28943 25.8503 8.32704 26.0394 8.40011 26.2158C8.47318 26.3922 8.58028 26.5525 8.71529 26.6875C8.85031 26.8225 9.01059 26.9296 9.187 27.0027C9.36341 27.0757 9.55248 27.1134 9.74342 27.1134C9.93436 27.1134 10.1234 27.0757 10.2998 27.0027C10.4762 26.9296 10.6365 26.8225 10.7715 26.6875L17.9028 19.5562L25.034 26.6875C25.1691 26.8225 25.3293 26.9296 25.5057 27.0027C25.6822 27.0757 25.8712 27.1134 26.0622 27.1134C26.2531 27.1134 26.4422 27.0757 26.6186 27.0027C26.795 26.9296 26.9553 26.8225 27.0903 26.6875C27.2253 26.5525 27.3324 26.3922 27.4055 26.2158C27.4785 26.0394 27.5162 25.8503 27.5162 25.6594C27.5162 25.4684 27.4785 25.2794 27.4055 25.1029C27.3324 24.9265 27.2253 24.7663 27.0903 24.6312L19.959 17.5L27.0903 10.3687C27.6445 9.81457 27.6445 8.88124 27.0903 8.32707Z" fill="black"/>
</svg>
