<svg width="50" height="50" viewBox="0 0 50 50" fill="none" xmlns="http://www.w3.org/2000/svg">
<path d="M25 31.1978C24.7222 31.1978 24.4528 31.1458 24.1917 31.0416C23.9306 30.9374 23.7139 30.7985 23.5417 30.6249L13.9584 21.0416C13.5764 20.6596 13.3854 20.1735 13.3854 19.5833C13.3854 18.993 13.5764 18.5069 13.9584 18.1249C14.3403 17.743 14.8264 17.552 15.4167 17.552C16.007 17.552 16.4931 17.743 16.875 18.1249L25 26.2499L33.125 18.1249C33.507 17.743 33.9931 17.552 34.5834 17.552C35.1736 17.552 35.6597 17.743 36.0417 18.1249C36.4236 18.5069 36.6146 18.993 36.6146 19.5833C36.6146 20.1735 36.4236 20.6596 36.0417 21.0416L26.4584 30.6249C26.25 30.8333 26.0243 30.9812 25.7813 31.0687C25.5382 31.1562 25.2778 31.1992 25 31.1978Z" fill="black"/>
</svg>
