<svg width="285" height="149" viewBox="0 0 285 149" fill="none" xmlns="http://www.w3.org/2000/svg">
<g filter="url(#filter0_d_202_2)">
<path d="M281 45H15C9.47715 45 5 49.4772 5 55V106C5 111.523 9.47715 116 15 116H281" stroke="#B5B5B5"/>
</g>
<path d="M17.12 33.21C15.72 33.21 14.46 32.97 13.34 32.49C12.22 31.99 11.34 31.29 10.7 30.39C10.06 29.49 9.74 28.44 9.74 27.24H13.4C13.48 28.14 13.83 28.88 14.45 29.46C15.09 30.04 15.98 30.33 17.12 30.33C18.3 30.33 19.22 30.05 19.88 29.49C20.54 28.91 20.87 28.17 20.87 27.27C20.87 26.57 20.66 26 20.24 25.56C19.84 25.12 19.33 24.78 18.71 24.54C18.11 24.3 17.27 24.04 16.19 23.76C14.83 23.4 13.72 23.04 12.86 22.68C12.02 22.3 11.3 21.72 10.7 20.94C10.1 20.16 9.8 19.12 9.8 17.82C9.8 16.62 10.1 15.57 10.7 14.67C11.3 13.77 12.14 13.08 13.22 12.6C14.3 12.12 15.55 11.88 16.97 11.88C18.99 11.88 20.64 12.39 21.92 13.41C23.22 14.41 23.94 15.79 24.08 17.55H20.3C20.24 16.79 19.88 16.14 19.22 15.6C18.56 15.06 17.69 14.79 16.61 14.79C15.63 14.79 14.83 15.04 14.21 15.54C13.59 16.04 13.28 16.76 13.28 17.7C13.28 18.34 13.47 18.87 13.85 19.29C14.25 19.69 14.75 20.01 15.35 20.25C15.95 20.49 16.77 20.75 17.81 21.03C19.19 21.41 20.31 21.79 21.17 22.17C22.05 22.55 22.79 23.14 23.39 23.94C24.01 24.72 24.32 25.77 24.32 27.09C24.32 28.15 24.03 29.15 23.45 30.09C22.89 31.03 22.06 31.79 20.96 32.37C19.88 32.93 18.6 33.21 17.12 33.21ZM43.5055 24.33C43.5055 24.95 43.4655 25.51 43.3855 26.01H30.7555C30.8555 27.33 31.3455 28.39 32.2255 29.19C33.1055 29.99 34.1855 30.39 35.4655 30.39C37.3055 30.39 38.6055 29.62 39.3655 28.08H43.0555C42.5555 29.6 41.6455 30.85 40.3255 31.83C39.0255 32.79 37.4055 33.27 35.4655 33.27C33.8855 33.27 32.4655 32.92 31.2055 32.22C29.9655 31.5 28.9855 30.5 28.2655 29.22C27.5655 27.92 27.2155 26.42 27.2155 24.72C27.2155 23.02 27.5555 21.53 28.2355 20.25C28.9355 18.95 29.9055 17.95 31.1455 17.25C32.4055 16.55 33.8455 16.2 35.4655 16.2C37.0255 16.2 38.4155 16.54 39.6355 17.22C40.8555 17.9 41.8055 18.86 42.4855 20.1C43.1655 21.32 43.5055 22.73 43.5055 24.33ZM39.9355 23.25C39.9155 21.99 39.4655 20.98 38.5855 20.22C37.7055 19.46 36.6155 19.08 35.3155 19.08C34.1355 19.08 33.1255 19.46 32.2855 20.22C31.4455 20.96 30.9455 21.97 30.7855 23.25H39.9355ZM45.7311 24.66C45.7311 23 46.0711 21.53 46.7511 20.25C47.4511 18.97 48.3911 17.98 49.5711 17.28C50.7711 16.56 52.0911 16.2 53.5311 16.2C54.8311 16.2 55.9611 16.46 56.9211 16.98C57.9011 17.48 58.6811 18.11 59.2611 18.87V16.47H62.7111V33H59.2611V30.54C58.6811 31.32 57.8911 31.97 56.8911 32.49C55.8911 33.01 54.7511 33.27 53.4711 33.27C52.0511 33.27 50.7511 32.91 49.5711 32.19C48.3911 31.45 47.4511 30.43 46.7511 29.13C46.0711 27.81 45.7311 26.32 45.7311 24.66ZM59.2611 24.72C59.2611 23.58 59.0211 22.59 58.5411 21.75C58.0811 20.91 57.4711 20.27 56.7111 19.83C55.9511 19.39 55.1311 19.17 54.2511 19.17C53.3711 19.17 52.5511 19.39 51.7911 19.83C51.0311 20.25 50.4111 20.88 49.9311 21.72C49.4711 22.54 49.2411 23.52 49.2411 24.66C49.2411 25.8 49.4711 26.8 49.9311 27.66C50.4111 28.52 51.0311 29.18 51.7911 29.64C52.5711 30.08 53.3911 30.3 54.2511 30.3C55.1311 30.3 55.9511 30.08 56.7111 29.64C57.4711 29.2 58.0811 28.56 58.5411 27.72C59.0211 26.86 59.2611 25.86 59.2611 24.72ZM70.6231 18.87C71.1231 18.03 71.7831 17.38 72.6031 16.92C73.4431 16.44 74.4331 16.2 75.5731 16.2V19.74H74.7031C73.3631 19.74 72.3431 20.08 71.6431 20.76C70.9631 21.44 70.6231 22.62 70.6231 24.3V33H67.2031V16.47H70.6231V18.87ZM77.5768 24.72C77.5768 23.02 77.9168 21.53 78.5968 20.25C79.2968 18.95 80.2568 17.95 81.4768 17.25C82.6968 16.55 84.0968 16.2 85.6768 16.2C87.6768 16.2 89.3268 16.68 90.6268 17.64C91.9468 18.58 92.8368 19.93 93.2968 21.69H89.6068C89.3068 20.87 88.8268 20.23 88.1668 19.77C87.5068 19.31 86.6768 19.08 85.6768 19.08C84.2768 19.08 83.1568 19.58 82.3168 20.58C81.4968 21.56 81.0868 22.94 81.0868 24.72C81.0868 26.5 81.4968 27.89 82.3168 28.89C83.1568 29.89 84.2768 30.39 85.6768 30.39C87.6568 30.39 88.9668 29.52 89.6068 27.78H93.2968C92.8168 29.46 91.9168 30.8 90.5968 31.8C89.2768 32.78 87.6368 33.27 85.6768 33.27C84.0968 33.27 82.6968 32.92 81.4768 32.22C80.2568 31.5 79.2968 30.5 78.5968 29.22C77.9168 27.92 77.5768 26.42 77.5768 24.72ZM105.255 16.2C106.515 16.2 107.635 16.47 108.615 17.01C109.615 17.55 110.395 18.35 110.955 19.41C111.535 20.47 111.825 21.75 111.825 23.25V33H108.435V23.76C108.435 22.28 108.065 21.15 107.325 20.37C106.585 19.57 105.575 19.17 104.295 19.17C103.015 19.17 101.995 19.57 101.235 20.37C100.495 21.15 100.125 22.28 100.125 23.76V33H96.7051V10.8H100.125V18.39C100.705 17.69 101.435 17.15 102.315 16.77C103.215 16.39 104.195 16.2 105.255 16.2Z" fill="black"/>
<path d="M90.15 74.15C89.57 72.93 88.73 71.99 87.63 71.33C86.53 70.65 85.25 70.31 83.79 70.31C82.33 70.31 81.01 70.65 79.83 71.33C78.67 71.99 77.75 72.95 77.07 74.21C76.41 75.45 76.08 76.89 76.08 78.53C76.08 80.17 76.41 81.61 77.07 82.85C77.75 84.09 78.67 85.05 79.83 85.73C81.01 86.39 82.33 86.72 83.79 86.72C85.83 86.72 87.51 86.11 88.83 84.89C90.15 83.67 90.92 82.02 91.14 79.94H82.8V77.72H94.05V79.82C93.89 81.54 93.35 83.12 92.43 84.56C91.51 85.98 90.3 87.11 88.8 87.95C87.3 88.77 85.63 89.18 83.79 89.18C81.85 89.18 80.08 88.73 78.48 87.83C76.88 86.91 75.61 85.64 74.67 84.02C73.75 82.4 73.29 80.57 73.29 78.53C73.29 76.49 73.75 74.66 74.67 73.04C75.61 71.4 76.88 70.13 78.48 69.23C80.08 68.31 81.85 67.85 83.79 67.85C86.01 67.85 87.97 68.4 89.67 69.5C91.39 70.6 92.64 72.15 93.42 74.15H90.15ZM96.6396 80.72C96.6396 79.04 96.9796 77.57 97.6596 76.31C98.3396 75.03 99.2696 74.04 100.45 73.34C101.65 72.64 102.98 72.29 104.44 72.29C105.88 72.29 107.13 72.6 108.19 73.22C109.25 73.84 110.04 74.62 110.56 75.56V72.56H113.32V89H110.56V85.94C110.02 86.9 109.21 87.7 108.13 88.34C107.07 88.96 105.83 89.27 104.41 89.27C102.95 89.27 101.63 88.91 100.45 88.19C99.2696 87.47 98.3396 86.46 97.6596 85.16C96.9796 83.86 96.6396 82.38 96.6396 80.72ZM110.56 80.75C110.56 79.51 110.31 78.43 109.81 77.51C109.31 76.59 108.63 75.89 107.77 75.41C106.93 74.91 106 74.66 104.98 74.66C103.96 74.66 103.03 74.9 102.19 75.38C101.35 75.86 100.68 76.56 100.18 77.48C99.6796 78.4 99.4296 79.48 99.4296 80.72C99.4296 81.98 99.6796 83.08 100.18 84.02C100.68 84.94 101.35 85.65 102.19 86.15C103.03 86.63 103.96 86.87 104.98 86.87C106 86.87 106.93 86.63 107.77 86.15C108.63 85.65 109.31 84.94 109.81 84.02C110.31 83.08 110.56 81.99 110.56 80.75ZM125.943 72.26C127.943 72.26 129.563 72.87 130.803 74.09C132.043 75.29 132.663 77.03 132.663 79.31V89H129.963V79.7C129.963 78.06 129.553 76.81 128.733 75.95C127.913 75.07 126.793 74.63 125.373 74.63C123.933 74.63 122.783 75.08 121.923 75.98C121.083 76.88 120.663 78.19 120.663 79.91V89H117.933V72.56H120.663V74.9C121.203 74.06 121.933 73.41 122.853 72.95C123.793 72.49 124.823 72.26 125.943 72.26ZM138.593 69.89C138.073 69.89 137.633 69.71 137.273 69.35C136.933 68.99 136.763 68.55 136.763 68.03C136.763 67.51 136.933 67.07 137.273 66.71C137.633 66.35 138.073 66.17 138.593 66.17C139.113 66.17 139.543 66.35 139.883 66.71C140.243 67.07 140.423 67.51 140.423 68.03C140.423 68.55 140.243 68.99 139.883 69.35C139.543 69.71 139.113 69.89 138.593 69.89ZM139.943 92.57C139.943 94.03 139.573 95.1 138.833 95.78C138.093 96.46 137.013 96.8 135.593 96.8H134.002V94.49H135.143C135.903 94.49 136.433 94.34 136.733 94.04C137.053 93.74 137.213 93.23 137.213 92.51V72.56H139.943V92.57ZM143.544 80.72C143.544 79.04 143.884 77.57 144.564 76.31C145.244 75.03 146.174 74.04 147.354 73.34C148.554 72.64 149.884 72.29 151.344 72.29C152.784 72.29 154.034 72.6 155.094 73.22C156.154 73.84 156.944 74.62 157.464 75.56V72.56H160.224V89H157.464V85.94C156.924 86.9 156.114 87.7 155.034 88.34C153.974 88.96 152.734 89.27 151.314 89.27C149.854 89.27 148.534 88.91 147.354 88.19C146.174 87.47 145.244 86.46 144.564 85.16C143.884 83.86 143.544 82.38 143.544 80.72ZM157.464 80.75C157.464 79.51 157.214 78.43 156.714 77.51C156.214 76.59 155.534 75.89 154.674 75.41C153.834 74.91 152.904 74.66 151.884 74.66C150.864 74.66 149.934 74.9 149.094 75.38C148.254 75.86 147.584 76.56 147.084 77.48C146.584 78.4 146.334 79.48 146.334 80.72C146.334 81.98 146.584 83.08 147.084 84.02C147.584 84.94 148.254 85.65 149.094 86.15C149.934 86.63 150.864 86.87 151.884 86.87C152.904 86.87 153.834 86.63 154.674 86.15C155.534 85.65 156.214 84.94 156.714 84.02C157.214 83.08 157.464 81.99 157.464 80.75ZM167.567 75.23C168.047 74.29 168.727 73.56 169.607 73.04C170.507 72.52 171.597 72.26 172.877 72.26V75.08H172.157C169.097 75.08 167.567 76.74 167.567 80.06V89H164.837V72.56H167.567V75.23ZM198.007 74.21C198.007 75.95 197.407 77.4 196.207 78.56C195.027 79.7 193.217 80.27 190.777 80.27H186.757V89H184.027V68.09H190.777C193.137 68.09 194.927 68.66 196.147 69.8C197.387 70.94 198.007 72.41 198.007 74.21ZM190.777 78.02C192.297 78.02 193.417 77.69 194.137 77.03C194.857 76.37 195.217 75.43 195.217 74.21C195.217 71.63 193.737 70.34 190.777 70.34H186.757V78.02H190.777ZM204.13 75.23C204.61 74.29 205.29 73.56 206.17 73.04C207.07 72.52 208.16 72.26 209.44 72.26V75.08H208.72C205.66 75.08 204.13 76.74 204.13 80.06V89H201.4V72.56H204.13V75.23ZM211.571 80.72C211.571 79.04 211.911 77.57 212.591 76.31C213.271 75.03 214.201 74.04 215.381 73.34C216.581 72.64 217.911 72.29 219.371 72.29C220.811 72.29 222.061 72.6 223.121 73.22C224.181 73.84 224.971 74.62 225.491 75.56V72.56H228.251V89H225.491V85.94C224.951 86.9 224.141 87.7 223.061 88.34C222.001 88.96 220.761 89.27 219.341 89.27C217.881 89.27 216.561 88.91 215.381 88.19C214.201 87.47 213.271 86.46 212.591 85.16C211.911 83.86 211.571 82.38 211.571 80.72ZM225.491 80.75C225.491 79.51 225.241 78.43 224.741 77.51C224.241 76.59 223.561 75.89 222.701 75.41C221.861 74.91 220.931 74.66 219.911 74.66C218.891 74.66 217.961 74.9 217.121 75.38C216.281 75.86 215.611 76.56 215.111 77.48C214.611 78.4 214.361 79.48 214.361 80.72C214.361 81.98 214.611 83.08 215.111 84.02C215.611 84.94 216.281 85.65 217.121 86.15C217.961 86.63 218.891 86.87 219.911 86.87C220.931 86.87 221.861 86.63 222.701 86.15C223.561 85.65 224.241 84.94 224.741 84.02C225.241 83.08 225.491 81.99 225.491 80.75Z" fill="black"/>
<line x1="230.5" y1="55" x2="230.5" y2="106" stroke="black" stroke-width="3"/>
<path d="M54.8 96.6L43.6 85.4C42.6 86.2 41.45 86.8333 40.15 87.3C38.85 87.7667 37.4667 88 36 88C32.3667 88 29.292 86.7413 26.776 84.224C24.26 81.7067 23.0013 78.632 23 75C23 71.3667 24.2587 68.292 26.776 65.776C29.2933 63.26 32.368 62.0013 36 62C39.6333 62 42.708 63.2587 45.224 65.776C47.74 68.2933 48.9987 71.368 49 75C49 76.4667 48.7667 77.85 48.3 79.15C47.8333 80.45 47.2 81.6 46.4 82.6L57.65 93.85C58.0167 94.2167 58.2 94.6667 58.2 95.2C58.2 95.7333 58 96.2 57.6 96.6C57.2333 96.9667 56.7667 97.15 56.2 97.15C55.6333 97.15 55.1667 96.9667 54.8 96.6ZM36 84C38.5 84 40.6253 83.1247 42.376 81.374C44.1267 79.6233 45.0013 77.4987 45 75C45 72.5 44.1247 70.3747 42.374 68.624C40.6233 66.8733 38.4987 65.9987 36 66C33.5 66 31.3747 66.8753 29.624 68.626C27.8733 70.3767 26.9987 72.5013 27 75C27 77.5 27.8753 79.6253 29.626 81.376C31.3767 83.1267 33.5013 84.0013 36 84Z" fill="#A7A7A7"/>
<path d="M259.1 143.925C258.805 144.069 258.484 144.152 258.157 144.171C257.829 144.19 257.501 144.143 257.192 144.033C256.882 143.924 256.598 143.754 256.354 143.534C256.111 143.314 255.914 143.047 255.775 142.75L250.325 130.9L244.05 135.95C243.625 136.3 243.1 136.5 242.5 136.5C241.837 136.5 241.201 136.237 240.732 135.768C240.263 135.299 240 134.663 240 134V96.5C240 95.837 240.263 95.2011 240.732 94.7322C241.201 94.2634 241.837 94 242.5 94C243.1 94 243.675 94.225 244.1 94.575L244.125 94.55L272.85 118.65C273.212 118.952 273.482 119.349 273.628 119.798C273.774 120.246 273.791 120.726 273.676 121.183C273.561 121.641 273.319 122.056 272.978 122.382C272.638 122.708 272.212 122.931 271.75 123.025L263.85 124.575L269.35 136.4C270 137.65 269.4 139.125 268.15 139.7L259.1 143.925Z" fill="#757575"/>
<defs>
<filter id="filter0_d_202_2" x="0.5" y="44.5" width="284.5" height="80" filterUnits="userSpaceOnUse" color-interpolation-filters="sRGB">
<feFlood flood-opacity="0" result="BackgroundImageFix"/>
<feColorMatrix in="SourceAlpha" type="matrix" values="0 0 0 0 0 0 0 0 0 0 0 0 0 0 0 0 0 0 127 0" result="hardAlpha"/>
<feOffset dy="4"/>
<feGaussianBlur stdDeviation="2"/>
<feComposite in2="hardAlpha" operator="out"/>
<feColorMatrix type="matrix" values="0 0 0 0 0 0 0 0 0 0 0 0 0 0 0 0 0 0 0.5 0"/>
<feBlend mode="normal" in2="BackgroundImageFix" result="effect1_dropShadow_202_2"/>
<feBlend mode="normal" in="SourceGraphic" in2="effect1_dropShadow_202_2" result="shape"/>
</filter>
</defs>
</svg>
