<svg width="220" height="226" viewBox="0 0 220 226" fill="none" xmlns="http://www.w3.org/2000/svg">
<g filter="url(#filter0_d_150_49)">
<rect x="152.338" y="99.1899" width="56.8101" height="118.81" rx="10" fill="#A5B9FF"/>
<rect x="152.338" y="123.17" width="56.8101" height="94.83" rx="10" fill="#5229F8"/>
<rect x="11.3643" y="142.79" width="56.8101" height="75.21" rx="10" fill="#A5B9FF"/>
<rect x="11.3643" y="162.41" width="56.8101" height="55.59" rx="10" fill="#5229F8"/>
<rect x="81.8509" y="62.1299" width="56.8101" height="155.87" rx="10" fill="#A5B9FF"/>
<rect x="81.8509" y="87.2" width="56.8101" height="130.8" rx="10" fill="#5229F8"/>
<rect x="74.4867" width="70.4867" height="28.34" rx="14.17" fill="#FF900E"/>
<path d="M110.256 39.24L103.878 27.795L116.634 27.795L110.256 39.24Z" fill="#FF900E"/>
<path d="M92.8338 13.3909H89.8038V16.4959H88.2138V13.3909H85.1838V11.9509H88.2138V8.84594H89.8038V11.9509H92.8338V13.3909ZM98.9333 8.71094V7.15094H102.053V18.0859H100.328V8.71094H98.9333ZM104.402 12.4759C104.402 10.7459 104.692 9.39594 105.272 8.42594C105.862 7.44594 106.872 6.95594 108.302 6.95594C109.732 6.95594 110.737 7.44594 111.317 8.42594C111.907 9.39594 112.202 10.7459 112.202 12.4759C112.202 14.2259 111.907 15.5959 111.317 16.5859C110.737 17.5659 109.732 18.0559 108.302 18.0559C106.872 18.0559 105.862 17.5659 105.272 16.5859C104.692 15.5959 104.402 14.2259 104.402 12.4759ZM110.522 12.4759C110.522 11.6659 110.467 10.9809 110.357 10.4209C110.257 9.86094 110.047 9.40594 109.727 9.05594C109.407 8.69594 108.932 8.51594 108.302 8.51594C107.672 8.51594 107.197 8.69594 106.877 9.05594C106.557 9.40594 106.342 9.86094 106.232 10.4209C106.132 10.9809 106.082 11.6659 106.082 12.4759C106.082 13.3159 106.132 14.0209 106.232 14.5909C106.332 15.1609 106.542 15.6209 106.862 15.9709C107.192 16.3209 107.672 16.4959 108.302 16.4959C108.932 16.4959 109.407 16.3209 109.727 15.9709C110.057 15.6209 110.272 15.1609 110.372 14.5909C110.472 14.0209 110.522 13.3159 110.522 12.4759ZM121.062 8.62094H116.037V11.6059C116.247 11.3259 116.557 11.0909 116.967 10.9009C117.387 10.7109 117.832 10.6159 118.302 10.6159C119.142 10.6159 119.822 10.7959 120.342 11.1559C120.872 11.5159 121.247 11.9709 121.467 12.5209C121.697 13.0709 121.812 13.6509 121.812 14.2609C121.812 15.0009 121.667 15.6609 121.377 16.2409C121.097 16.8109 120.672 17.2609 120.102 17.5909C119.542 17.9209 118.852 18.0859 118.032 18.0859C116.942 18.0859 116.067 17.8159 115.407 17.2759C114.747 16.7359 114.352 16.0209 114.222 15.1309H115.887C115.997 15.6009 116.242 15.9759 116.622 16.2559C117.002 16.5259 117.477 16.6609 118.047 16.6609C118.757 16.6609 119.287 16.4459 119.637 16.0159C119.997 15.5859 120.177 15.0159 120.177 14.3059C120.177 13.5859 119.997 13.0359 119.637 12.6559C119.277 12.2659 118.747 12.0709 118.047 12.0709C117.557 12.0709 117.142 12.1959 116.802 12.4459C116.472 12.6859 116.232 13.0159 116.082 13.4359H114.462V7.12094H121.062V8.62094ZM123.592 12.4759C123.592 10.7459 123.882 9.39594 124.462 8.42594C125.052 7.44594 126.062 6.95594 127.492 6.95594C128.922 6.95594 129.927 7.44594 130.507 8.42594C131.097 9.39594 131.392 10.7459 131.392 12.4759C131.392 14.2259 131.097 15.5959 130.507 16.5859C129.927 17.5659 128.922 18.0559 127.492 18.0559C126.062 18.0559 125.052 17.5659 124.462 16.5859C123.882 15.5959 123.592 14.2259 123.592 12.4759ZM129.712 12.4759C129.712 11.6659 129.657 10.9809 129.547 10.4209C129.447 9.86094 129.237 9.40594 128.917 9.05594C128.597 8.69594 128.122 8.51594 127.492 8.51594C126.862 8.51594 126.387 8.69594 126.067 9.05594C125.747 9.40594 125.532 9.86094 125.422 10.4209C125.322 10.9809 125.272 11.6659 125.272 12.4759C125.272 13.3159 125.322 14.0209 125.422 14.5909C125.522 15.1609 125.732 15.6209 126.052 15.9709C126.382 16.3209 126.862 16.4959 127.492 16.4959C128.122 16.4959 128.597 16.3209 128.917 15.9709C129.247 15.6209 129.462 15.1609 129.562 14.5909C129.662 14.0209 129.712 13.3159 129.712 12.4759Z" fill="white"/>
<rect x="144.973" y="42.51" width="70.4867" height="28.34" rx="14.17" fill="#FF900E"/>
<path d="M180.743 81.75L174.365 70.305L187.12 70.305L180.743 81.75Z" fill="#FF900E"/>
<path d="M165.537 54.2857V55.7257H159.372V54.2857H165.537ZM178.688 50.9707H173.663V53.9557C173.873 53.6757 174.183 53.4407 174.593 53.2507C175.013 53.0607 175.458 52.9657 175.928 52.9657C176.768 52.9657 177.448 53.1457 177.968 53.5057C178.498 53.8657 178.873 54.3207 179.093 54.8707C179.323 55.4207 179.438 56.0007 179.438 56.6107C179.438 57.3507 179.293 58.0107 179.003 58.5907C178.723 59.1607 178.298 59.6107 177.728 59.9407C177.168 60.2707 176.478 60.4357 175.658 60.4357C174.568 60.4357 173.693 60.1657 173.033 59.6257C172.373 59.0857 171.978 58.3707 171.848 57.4807H173.513C173.623 57.9507 173.868 58.3257 174.248 58.6057C174.628 58.8757 175.103 59.0107 175.673 59.0107C176.383 59.0107 176.913 58.7957 177.263 58.3657C177.623 57.9357 177.803 57.3657 177.803 56.6557C177.803 55.9357 177.623 55.3857 177.263 55.0057C176.903 54.6157 176.373 54.4207 175.673 54.4207C175.183 54.4207 174.768 54.5457 174.428 54.7957C174.098 55.0357 173.858 55.3657 173.708 55.7857H172.088V49.4707H178.688V50.9707ZM181.218 54.8257C181.218 53.0957 181.508 51.7457 182.088 50.7757C182.678 49.7957 183.688 49.3057 185.118 49.3057C186.548 49.3057 187.553 49.7957 188.133 50.7757C188.723 51.7457 189.018 53.0957 189.018 54.8257C189.018 56.5757 188.723 57.9457 188.133 58.9357C187.553 59.9157 186.548 60.4057 185.118 60.4057C183.688 60.4057 182.678 59.9157 182.088 58.9357C181.508 57.9457 181.218 56.5757 181.218 54.8257ZM187.338 54.8257C187.338 54.0157 187.283 53.3307 187.173 52.7707C187.073 52.2107 186.863 51.7557 186.543 51.4057C186.223 51.0457 185.748 50.8657 185.118 50.8657C184.488 50.8657 184.013 51.0457 183.693 51.4057C183.373 51.7557 183.158 52.2107 183.048 52.7707C182.948 53.3307 182.898 54.0157 182.898 54.8257C182.898 55.6657 182.948 56.3707 183.048 56.9407C183.148 57.5107 183.358 57.9707 183.678 58.3207C184.008 58.6707 184.488 58.8457 185.118 58.8457C185.748 58.8457 186.223 58.6707 186.543 58.3207C186.873 57.9707 187.088 57.5107 187.188 56.9407C187.288 56.3707 187.338 55.6657 187.338 54.8257ZM190.828 54.8257C190.828 53.0957 191.118 51.7457 191.698 50.7757C192.288 49.7957 193.298 49.3057 194.728 49.3057C196.158 49.3057 197.163 49.7957 197.743 50.7757C198.333 51.7457 198.628 53.0957 198.628 54.8257C198.628 56.5757 198.333 57.9457 197.743 58.9357C197.163 59.9157 196.158 60.4057 194.728 60.4057C193.298 60.4057 192.288 59.9157 191.698 58.9357C191.118 57.9457 190.828 56.5757 190.828 54.8257ZM196.948 54.8257C196.948 54.0157 196.893 53.3307 196.783 52.7707C196.683 52.2107 196.473 51.7557 196.153 51.4057C195.833 51.0457 195.358 50.8657 194.728 50.8657C194.098 50.8657 193.623 51.0457 193.303 51.4057C192.983 51.7557 192.768 52.2107 192.658 52.7707C192.558 53.3307 192.508 54.0157 192.508 54.8257C192.508 55.6657 192.558 56.3707 192.658 56.9407C192.758 57.5107 192.968 57.9707 193.288 58.3207C193.618 58.6707 194.098 58.8457 194.728 58.8457C195.358 58.8457 195.833 58.6707 196.153 58.3207C196.483 57.9707 196.698 57.5107 196.798 56.9407C196.898 56.3707 196.948 55.6657 196.948 54.8257Z" fill="white"/>
<rect x="4" y="81.75" width="70.4867" height="28.34" rx="14.17" fill="#FF900E"/>
<path d="M39.7694 120.99L33.3917 109.545L46.147 109.545L39.7694 120.99Z" fill="#FF900E"/>
<path d="M21.9508 93.378V94.818H15.7858V93.378H21.9508ZM27.8267 90.153V88.593H30.9467V99.528H29.2217V90.153H27.8267ZM33.2958 93.918C33.2958 92.188 33.5858 90.838 34.1658 89.868C34.7558 88.888 35.7658 88.398 37.1958 88.398C38.6258 88.398 39.6308 88.888 40.2108 89.868C40.8008 90.838 41.0958 92.188 41.0958 93.918C41.0958 95.668 40.8008 97.038 40.2108 98.028C39.6308 99.008 38.6258 99.498 37.1958 99.498C35.7658 99.498 34.7558 99.008 34.1658 98.028C33.5858 97.038 33.2958 95.668 33.2958 93.918ZM39.4158 93.918C39.4158 93.108 39.3608 92.423 39.2508 91.863C39.1508 91.303 38.9408 90.848 38.6208 90.498C38.3008 90.138 37.8258 89.958 37.1958 89.958C36.5658 89.958 36.0908 90.138 35.7708 90.498C35.4508 90.848 35.2358 91.303 35.1258 91.863C35.0258 92.423 34.9758 93.108 34.9758 93.918C34.9758 94.758 35.0258 95.463 35.1258 96.033C35.2258 96.603 35.4358 97.063 35.7558 97.413C36.0858 97.763 36.5658 97.938 37.1958 97.938C37.8258 97.938 38.3008 97.763 38.6208 97.413C38.9508 97.063 39.1658 96.603 39.2658 96.033C39.3658 95.463 39.4158 94.758 39.4158 93.918ZM42.9052 93.918C42.9052 92.188 43.1952 90.838 43.7752 89.868C44.3652 88.888 45.3752 88.398 46.8052 88.398C48.2352 88.398 49.2402 88.888 49.8202 89.868C50.4102 90.838 50.7052 92.188 50.7052 93.918C50.7052 95.668 50.4102 97.038 49.8202 98.028C49.2402 99.008 48.2352 99.498 46.8052 99.498C45.3752 99.498 44.3652 99.008 43.7752 98.028C43.1952 97.038 42.9052 95.668 42.9052 93.918ZM49.0252 93.918C49.0252 93.108 48.9702 92.423 48.8602 91.863C48.7602 91.303 48.5502 90.848 48.2302 90.498C47.9102 90.138 47.4352 89.958 46.8052 89.958C46.1752 89.958 45.7002 90.138 45.3802 90.498C45.0602 90.848 44.8452 91.303 44.7352 91.863C44.6352 92.423 44.5852 93.108 44.5852 93.918C44.5852 94.758 44.6352 95.463 44.7352 96.033C44.8352 96.603 45.0452 97.063 45.3652 97.413C45.6952 97.763 46.1752 97.938 46.8052 97.938C47.4352 97.938 47.9102 97.763 48.2302 97.413C48.5602 97.063 48.7752 96.603 48.8752 96.033C48.9752 95.463 49.0252 94.758 49.0252 93.918ZM52.5146 93.918C52.5146 92.188 52.8046 90.838 53.3846 89.868C53.9746 88.888 54.9846 88.398 56.4146 88.398C57.8446 88.398 58.8496 88.888 59.4296 89.868C60.0196 90.838 60.3146 92.188 60.3146 93.918C60.3146 95.668 60.0196 97.038 59.4296 98.028C58.8496 99.008 57.8446 99.498 56.4146 99.498C54.9846 99.498 53.9746 99.008 53.3846 98.028C52.8046 97.038 52.5146 95.668 52.5146 93.918ZM58.6346 93.918C58.6346 93.108 58.5796 92.423 58.4696 91.863C58.3696 91.303 58.1596 90.848 57.8396 90.498C57.5196 90.138 57.0446 89.958 56.4146 89.958C55.7846 89.958 55.3096 90.138 54.9896 90.498C54.6696 90.848 54.4546 91.303 54.3446 91.863C54.2446 92.423 54.1946 93.108 54.1946 93.918C54.1946 94.758 54.2446 95.463 54.3446 96.033C54.4446 96.603 54.6546 97.063 54.9746 97.413C55.3046 97.763 55.7846 97.938 56.4146 97.938C57.0446 97.938 57.5196 97.763 57.8396 97.413C58.1696 97.063 58.3846 96.603 58.4846 96.033C58.5846 95.463 58.6346 94.758 58.6346 93.918Z" fill="white"/>
</g>
<defs>
<filter id="filter0_d_150_49" x="0" y="0" width="219.46" height="226" filterUnits="userSpaceOnUse" color-interpolation-filters="sRGB">
<feFlood flood-opacity="0" result="BackgroundImageFix"/>
<feColorMatrix in="SourceAlpha" type="matrix" values="0 0 0 0 0 0 0 0 0 0 0 0 0 0 0 0 0 0 127 0" result="hardAlpha"/>
<feOffset dy="4"/>
<feGaussianBlur stdDeviation="2"/>
<feComposite in2="hardAlpha" operator="out"/>
<feColorMatrix type="matrix" values="0 0 0 0 0 0 0 0 0 0 0 0 0 0 0 0 0 0 0.25 0"/>
<feBlend mode="normal" in2="BackgroundImageFix" result="effect1_dropShadow_150_49"/>
<feBlend mode="normal" in="SourceGraphic" in2="effect1_dropShadow_150_49" result="shape"/>
</filter>
</defs>
</svg>
