<svg width="85" height="85" viewBox="0 0 85 85" fill="none" xmlns="http://www.w3.org/2000/svg">
<path fill-rule="evenodd" clip-rule="evenodd" d="M0 42.5C0 31.2283 4.47767 20.4183 12.448 12.448C20.4183 4.47767 31.2283 0 42.5 0C53.7717 0 64.5817 4.47767 72.552 12.448C80.5223 20.4183 85 31.2283 85 42.5C85 53.7717 80.5223 64.5817 72.552 72.552C64.5817 80.5223 53.7717 85 42.5 85C31.2283 85 20.4183 80.5223 12.448 72.552C4.47767 64.5817 0 53.7717 0 42.5ZM22.6667 31.1667C22.6667 32.7315 23.9352 34 25.5 34V34C27.0648 34 28.3333 32.7315 28.3333 31.1667V31.1667C28.3333 29.6019 27.0648 28.3333 25.5 28.3333V28.3333C23.9352 28.3333 22.6667 29.6019 22.6667 31.1667V31.1667ZM56.6667 31.1667C56.6667 32.7315 57.9352 34 59.5 34V34C61.0648 34 62.3333 32.7315 62.3333 31.1667V31.1667C62.3333 29.6019 61.0648 28.3333 59.5 28.3333V28.3333C57.9352 28.3333 56.6667 29.6019 56.6667 31.1667V31.1667ZM59.5 51C61.0648 51 62.3333 52.2685 62.3333 53.8333V53.8333C62.3333 55.3981 61.0648 56.6667 59.5 56.6667H25.5C23.9352 56.6667 22.6667 55.3981 22.6667 53.8333V53.8333C22.6667 52.2685 23.9352 51 25.5 51H59.5Z" fill="#838383"/>
</svg>
