<svg width="18" height="18" viewBox="0 0 18 18" fill="none" xmlns="http://www.w3.org/2000/svg">
<path d="M9.75 8.7L11.625 10.575C11.7625 10.7125 11.8313 10.8875 11.8313 11.1C11.8313 11.3125 11.7625 11.4875 11.625 11.625C11.4875 11.7625 11.3125 11.8312 11.1 11.8312C10.8875 11.8312 10.7125 11.7625 10.575 11.625L8.475 9.525C8.4 9.45 8.34375 9.36575 8.30625 9.27225C8.26875 9.17875 8.25 9.08175 8.25 8.98125V6C8.25 5.7875 8.322 5.60925 8.466 5.46525C8.61 5.32125 8.788 5.2495 9 5.25C9.2125 5.25 9.39075 5.322 9.53475 5.466C9.67875 5.61 9.7505 5.788 9.75 6V8.7ZM9 15.75C7.4875 15.75 6.13125 15.303 4.93125 14.409C3.73125 13.515 2.925 12.3495 2.5125 10.9125C2.45 10.6875 2.472 10.475 2.5785 10.275C2.685 10.075 2.8505 9.95 3.075 9.9C3.2875 9.85 3.47825 9.897 3.64725 10.041C3.81625 10.185 3.93175 10.363 3.99375 10.575C4.31875 11.675 4.947 12.5625 5.8785 13.2375C6.81 13.9125 7.8505 14.25 9 14.25C10.4625 14.25 11.7033 13.7405 12.7223 12.7215C13.7413 11.7025 14.2505 10.462 14.25 9C14.25 7.5375 13.7405 6.29675 12.7215 5.27775C11.7025 4.25875 10.462 3.7495 9 3.75C8.1375 3.75 7.33125 3.95 6.58125 4.35C5.83125 4.75 5.2 5.3 4.6875 6H6C6.2125 6 6.39075 6.072 6.53475 6.216C6.67875 6.36 6.7505 6.538 6.75 6.75C6.75 6.9625 6.678 7.14075 6.534 7.28475C6.39 7.42875 6.212 7.5005 6 7.5H3C2.7875 7.5 2.60925 7.428 2.46525 7.284C2.32125 7.14 2.2495 6.962 2.25 6.75V3.75C2.25 3.5375 2.322 3.35925 2.466 3.21525C2.61 3.07125 2.788 2.9995 3 3C3.2125 3 3.39075 3.072 3.53475 3.216C3.67875 3.36 3.7505 3.538 3.75 3.75V4.7625C4.3875 3.9625 5.16575 3.34375 6.08475 2.90625C7.00375 2.46875 7.9755 2.25 9 2.25C9.9375 2.25 10.8158 2.42825 11.6348 2.78475C12.4538 3.14125 13.1663 3.62225 13.7723 4.22775C14.3783 4.83425 14.8595 5.54675 15.216 6.36525C15.5725 7.18375 15.7505 8.062 15.75 9C15.75 9.9375 15.5718 10.8158 15.2153 11.6347C14.8588 12.4537 14.3778 13.1663 13.7723 13.7723C13.1658 14.3783 12.4533 14.8595 11.6348 15.216C10.8163 15.5725 9.938 15.7505 9 15.75Z" fill="#F8F8F8"/>
</svg>
