<svg xmlns="http://www.w3.org/2000/svg" viewBox="0 0 260 260"><defs><style>.cls-1{fill:#efeff0;}.cls-2{fill:#2bb673;}.cls-3{fill:#a7a9ac;}.cls-4{fill:#f26861;}</style></defs><g id="Layer_2" data-name="Layer 2"><g id="Layer_1-2" data-name="Layer 1"><rect class="cls-1" width="260" height="260" rx="58"/><path class="cls-2" d="M38.83,41.46H73.48a6.73,6.73,0,0,1,6.73,6.73V228.27A6.73,6.73,0,0,1,73.48,235H56.28a24.17,24.17,0,0,1-24.17-24.17V48.19A6.73,6.73,0,0,1,38.83,41.46Z"/><rect class="cls-3" x="106.18" y="118.26" width="48.09" height="116.96" rx="6.73"/><path class="cls-4" d="M186.83,171.89h34.64a6.73,6.73,0,0,1,6.73,6.73V212a23,23,0,0,1-23,23H186.83a6.73,6.73,0,0,1-6.73-6.73V178.62A6.73,6.73,0,0,1,186.83,171.89Z"/></g></g></svg>