<svg width="21" height="21" viewBox="0 0 21 21" fill="none" xmlns="http://www.w3.org/2000/svg">
<path d="M19.5 14.5C19.1458 14.5 18.8488 14.38 18.6088 14.14C18.3688 13.9 18.2492 13.6033 18.25 13.25V3.25H8.25C7.89584 3.25 7.59875 3.13 7.35875 2.89C7.11875 2.65 6.99917 2.35334 7 2C7 1.64584 7.12 1.34875 7.36 1.10875C7.6 0.868754 7.89667 0.749171 8.25 0.750004H19.5C19.8542 0.750004 20.1513 0.870004 20.3913 1.11C20.6313 1.35 20.7508 1.64667 20.75 2V13.25C20.75 13.6042 20.63 13.9013 20.39 14.1413C20.15 14.3813 19.8533 14.5008 19.5 14.5ZM13.25 20.75C12.8958 20.75 12.5988 20.63 12.3588 20.39C12.1188 20.15 11.9992 19.8533 12 19.5V9.5H2C1.64584 9.5 1.34875 9.38 1.10875 9.14C0.868754 8.9 0.749171 8.60334 0.750004 8.25C0.750004 7.89584 0.870004 7.59875 1.11 7.35875C1.35 7.11875 1.64667 6.99917 2 7H13.25C13.6042 7 13.9013 7.12 14.1413 7.36C14.3813 7.6 14.5008 7.89667 14.5 8.25V19.5C14.5 19.8542 14.38 20.1513 14.14 20.3913C13.9 20.6313 13.6033 20.7508 13.25 20.75Z" fill="black"/>
</svg>
