<svg width="99" height="99" viewBox="0 0 99 99" fill="none" xmlns="http://www.w3.org/2000/svg">
<circle cx="49.5" cy="49.5" r="49.5" fill="#D9D9D9"/>
<g clip-path="url(#clip0_243_18)">
<path d="M65.5 39C65.5 43.3761 63.7616 47.5729 60.6673 50.6673C57.5729 53.7616 53.3761 55.5 49 55.5C44.6239 55.5 40.4271 53.7616 37.3327 50.6673C34.2384 47.5729 32.5 43.3761 32.5 39C32.5 34.6239 34.2384 30.4271 37.3327 27.3327C40.4271 24.2384 44.6239 22.5 49 22.5C53.3761 22.5 57.5729 24.2384 60.6673 27.3327C63.7616 30.4271 65.5 34.6239 65.5 39Z" fill="#838383"/>
<path fill-rule="evenodd" clip-rule="evenodd" d="M5 50C5 38.3305 9.6357 27.1389 17.8873 18.8873C26.1389 10.6357 37.3305 6 49 6C60.6695 6 71.8611 10.6357 80.1127 18.8873C88.3643 27.1389 93 38.3305 93 50C93 61.6695 88.3643 72.8611 80.1127 81.1127C71.8611 89.3643 60.6695 94 49 94C37.3305 94 26.1389 89.3643 17.8873 81.1127C9.6357 72.8611 5 61.6695 5 50ZM49 11.5C41.7498 11.5004 34.647 13.548 28.5092 17.4072C22.3714 21.2663 17.4481 26.7802 14.3058 33.3141C11.1636 39.848 9.93013 47.1364 10.7475 54.3404C11.5649 61.5444 14.3998 68.3712 18.926 74.035C22.831 67.743 31.4275 61 49 61C66.5725 61 75.1635 67.7375 79.074 74.035C83.6002 68.3712 86.4351 61.5444 87.2525 54.3404C88.0699 47.1364 86.8364 39.848 83.6942 33.3141C80.5519 26.7802 75.6286 21.2663 69.4908 17.4072C63.353 13.548 56.2502 11.5004 49 11.5Z" fill="#838383"/>
</g>
<defs>
<clipPath id="clip0_243_18">
<rect width="88" height="88" fill="white" transform="translate(5 6)"/>
</clipPath>
</defs>
</svg>
