<svg width="51" height="42" viewBox="0 0 51 42" fill="none" xmlns="http://www.w3.org/2000/svg">
<rect x="0.5" y="0.5" width="50" height="41" rx="6.5" fill="white" stroke="#374D76"/>
<path d="M21.3334 21C22.5711 21 23.758 20.5083 24.6332 19.6332C25.5084 18.758 26 17.571 26 16.3333C26 15.0956 25.5084 13.9087 24.6332 13.0335C23.758 12.1583 22.5711 11.6667 21.3334 11.6667C20.0957 11.6667 18.9087 12.1583 18.0335 13.0335C17.1584 13.9087 16.6667 15.0956 16.6667 16.3333C16.6667 17.571 17.1584 18.758 18.0335 19.6332C18.9087 20.5083 20.0957 21 21.3334 21ZM31.8334 21C32.7616 21 33.6519 20.6312 34.3082 19.9749C34.9646 19.3185 35.3334 18.4282 35.3334 17.5C35.3334 16.5717 34.9646 15.6815 34.3082 15.0251C33.6519 14.3687 32.7616 14 31.8334 14C30.9051 14 30.0149 14.3687 29.3585 15.0251C28.7021 15.6815 28.3334 16.5717 28.3334 17.5C28.3334 18.4282 28.7021 19.3185 29.3585 19.9749C30.0149 20.6312 30.9051 21 31.8334 21ZM16.9584 23.3333C16.2622 23.3333 15.5945 23.6099 15.1022 24.1022C14.6099 24.5945 14.3334 25.2621 14.3334 25.9583V26.25C14.3334 26.25 14.3334 31.5 21.3334 31.5C28.3334 31.5 28.3334 26.25 28.3334 26.25V25.9583C28.3334 25.2621 28.0568 24.5945 27.5645 24.1022C27.0722 23.6099 26.4046 23.3333 25.7084 23.3333H16.9584ZM31.8334 29.75C30.4672 29.75 29.4207 29.5388 28.6192 29.2157C29.0857 28.4284 29.3784 27.5505 29.4779 26.6408C29.4892 26.5303 29.4966 26.4194 29.5 26.3083V25.9583C29.5015 24.9809 29.1244 24.041 28.4477 23.3357C28.4874 23.334 28.527 23.3332 28.5667 23.3333H35.1C35.7808 23.3333 36.4336 23.6037 36.9149 24.0851C37.3963 24.5664 37.6667 25.2193 37.6667 25.9C37.6667 25.9 37.6667 29.75 31.8334 29.75Z" fill="black"/>
</svg>
