<svg width="85" height="85" viewBox="0 0 85 85" fill="none" xmlns="http://www.w3.org/2000/svg">
<path d="M42.5 0C19.0301 0 0 19.0301 0 42.5C0 65.9699 19.0301 85 42.5 85C65.9699 85 85 65.9699 85 42.5C85 19.0301 65.9699 0 42.5 0ZM21.25 33.8672C21.2743 32.6756 21.7648 31.541 22.6161 30.7069C23.4674 29.8728 24.6117 29.4056 25.8036 29.4056C26.9954 29.4056 28.1398 29.8728 28.9911 30.7069C29.8424 31.541 30.3328 32.6756 30.3571 33.8672C30.3328 35.0588 29.8424 36.1934 28.9911 37.0275C28.1398 37.8616 26.9954 38.3288 25.8036 38.3288C24.6117 38.3288 23.4674 37.8616 22.6161 37.0275C21.7648 36.1934 21.2743 35.0588 21.25 33.8672ZM42.5 59.6708C34.389 59.6708 27.7388 53.2863 27.3214 45.2891C27.3163 45.1863 27.3321 45.0835 27.3679 44.987C27.4038 44.8905 27.4588 44.8023 27.5298 44.7277C27.6008 44.6532 27.6862 44.5939 27.7809 44.5534C27.8755 44.5129 27.9774 44.4921 28.0804 44.4922H32.6434C33.0419 44.4922 33.3834 44.7958 33.4118 45.1942C33.7723 49.8901 37.7093 53.5993 42.5 53.5993C47.2907 53.5993 51.2372 49.8901 51.5882 45.1942C51.6166 44.7958 51.9582 44.4922 52.3566 44.4922H56.9196C57.0226 44.4921 57.1245 44.5129 57.2191 44.5534C57.3138 44.5939 57.3992 44.6532 57.4702 44.7277C57.5412 44.8023 57.5962 44.8905 57.6321 44.987C57.6679 45.0835 57.6837 45.1863 57.6786 45.2891C57.2612 53.2863 50.6111 59.6708 42.5 59.6708ZM59.1964 38.4208C58.0048 38.3964 56.8703 37.906 56.0362 37.0547C55.202 36.2034 54.7349 35.059 54.7349 33.8672C54.7349 32.6754 55.202 31.531 56.0362 30.6797C56.8703 29.8284 58.0048 29.3379 59.1964 29.3136C60.388 29.3379 61.5226 29.8284 62.3567 30.6797C63.1908 31.531 63.658 32.6754 63.658 33.8672C63.658 35.059 63.1908 36.2034 62.3567 37.0547C61.5226 37.906 60.388 38.3964 59.1964 38.4208Z" fill="#05FF00"/>
</svg>
