<svg width="17" height="17" viewBox="0 0 17 17" fill="none" xmlns="http://www.w3.org/2000/svg">
<g clip-path="url(#clip0_158_1081)">
<path fill-rule="evenodd" clip-rule="evenodd" d="M16.9373 7.47256C17.1724 9.40245 16.7389 11.3546 15.7089 13.0035C14.6789 14.6524 13.1149 15.8985 11.2774 16.5338C9.44004 17.1691 7.44036 17.1554 5.61185 16.4949C3.78334 15.8344 2.23652 14.567 1.22931 12.9041C1.1197 12.7233 1.08638 12.5064 1.13669 12.301C1.187 12.0957 1.31682 11.9188 1.49759 11.8092C1.67836 11.6995 1.89527 11.6662 2.10061 11.7165C2.30594 11.7668 2.48288 11.8967 2.5925 12.0774C3.13506 12.9734 3.87429 13.7341 4.75425 14.3022C5.63422 14.8703 6.63187 15.2308 7.6717 15.3564C8.71154 15.482 9.76633 15.3694 10.7563 15.0273C11.7462 14.6851 12.6453 14.1222 13.3856 13.3812C14.1259 12.6403 14.688 11.7407 15.0293 10.7504C15.3706 9.76019 15.4822 8.7053 15.3556 7.66558C15.2291 6.62585 14.8677 5.62853 14.2988 4.74907C13.73 3.86961 12.9685 3.13107 12.0721 2.58931C11.8912 2.47998 11.7611 2.30325 11.7105 2.09802C11.6599 1.89278 11.6929 1.67585 11.8022 1.49494C11.9116 1.31403 12.0883 1.18396 12.2935 1.13335C12.4988 1.08274 12.7157 1.11573 12.8966 1.22506C13.9998 1.89187 14.9368 2.80085 15.6369 3.88321C16.3369 4.96558 16.7816 6.19298 16.9373 7.47256ZM9.5625 1.0625C9.5625 1.34429 9.45056 1.61454 9.2513 1.8138C9.05204 2.01306 8.78179 2.125 8.5 2.125C8.21821 2.125 7.94796 2.01306 7.7487 1.8138C7.54944 1.61454 7.4375 1.34429 7.4375 1.0625C7.4375 0.780707 7.54944 0.510456 7.7487 0.311199C7.94796 0.111942 8.21821 0 8.5 0C8.78179 0 9.05204 0.111942 9.2513 0.311199C9.45056 0.510456 9.5625 0.780707 9.5625 1.0625ZM2.97925 5.3125C3.05012 5.19162 3.09637 5.05791 3.11535 4.91908C3.13434 4.78025 3.12567 4.63904 3.08986 4.50357C3.05404 4.3681 2.99178 4.24106 2.90667 4.12975C2.82155 4.01844 2.71526 3.92506 2.59391 3.855C2.47256 3.78494 2.33855 3.73957 2.1996 3.72151C2.06065 3.70345 1.91949 3.71305 1.78426 3.74976C1.64904 3.78648 1.52241 3.84958 1.41167 3.93543C1.30092 4.02128 1.20826 4.12819 1.139 4.25C1.00033 4.49391 0.963755 4.78276 1.03727 5.05353C1.11078 5.3243 1.28841 5.555 1.53139 5.69529C1.77437 5.83558 2.06297 5.87407 2.33423 5.80235C2.60548 5.73064 2.83735 5.55454 2.97925 5.3125ZM1.0625 7.4375C1.34429 7.4375 1.61454 7.54944 1.8138 7.7487C2.01306 7.94796 2.125 8.21821 2.125 8.5C2.125 8.78179 2.01306 9.05204 1.8138 9.2513C1.61454 9.45056 1.34429 9.5625 1.0625 9.5625C0.780707 9.5625 0.510456 9.45056 0.311199 9.2513C0.111942 9.05204 0 8.78179 0 8.5C0 8.21821 0.111942 7.94796 0.311199 7.7487C0.510456 7.54944 0.780707 7.4375 1.0625 7.4375ZM5.3125 2.97925C5.43431 2.90999 5.54122 2.81733 5.62707 2.70658C5.71292 2.59584 5.77602 2.46921 5.81274 2.33399C5.84945 2.19876 5.85905 2.0576 5.84099 1.91865C5.82293 1.7797 5.77756 1.64569 5.7075 1.52434C5.63744 1.40299 5.54406 1.2967 5.43275 1.21158C5.32144 1.12647 5.1944 1.06421 5.05893 1.02839C4.92346 0.992579 4.78225 0.983913 4.64342 1.0029C4.50459 1.02188 4.37088 1.06813 4.25 1.139C4.00796 1.2809 3.83186 1.51277 3.76015 1.78402C3.68843 2.05528 3.72692 2.34388 3.86721 2.58686C4.0075 2.82984 4.2382 3.00747 4.50897 3.08098C4.77974 3.1545 5.06859 3.11792 5.3125 2.97925Z" fill="#1E1D4C"/>
</g>
<defs>
<clipPath id="clip0_158_1081">
<rect width="17" height="17" fill="white"/>
</clipPath>
</defs>
</svg>
