<svg width="18" height="18" viewBox="0 0 18 18" fill="none" xmlns="http://www.w3.org/2000/svg">
<path d="M16.275 10.0125L15.525 10.7625L13.9875 9.225L14.7375 8.475C14.8146 8.39942 14.9183 8.35708 15.0262 8.35708C15.1342 8.35708 15.2379 8.39942 15.315 8.475L16.275 9.435C16.4325 9.5925 16.4325 9.855 16.275 10.0125ZM9 14.205L13.545 9.66L15.0825 11.1975L10.545 15.75H9V14.205ZM9 10.5C5.685 10.5 3 11.8425 3 13.5V15H7.5V13.5825L10.5 10.5825C10.005 10.5225 9.5025 10.5 9 10.5ZM9 3C8.20435 3 7.44129 3.31607 6.87868 3.87868C6.31607 4.44129 6 5.20435 6 6C6 6.79565 6.31607 7.55871 6.87868 8.12132C7.44129 8.68393 8.20435 9 9 9C9.79565 9 10.5587 8.68393 11.1213 8.12132C11.6839 7.55871 12 6.79565 12 6C12 5.20435 11.6839 4.44129 11.1213 3.87868C10.5587 3.31607 9.79565 3 9 3Z" fill="#F8F8F8"/>
</svg>
